<mxfile host="65bd71144e">
    <diagram id="pHjvhK5HH7Va8Ok6LG7-" name="Page-1">
        <mxGraphModel dx="763" dy="492" grid="1" gridSize="10" guides="1" tooltips="1" connect="1" arrows="1" fold="1" page="1" pageScale="1" pageWidth="850" pageHeight="1100" math="0" shadow="0">
            <root>
                <mxCell id="0"/>
                <mxCell id="1" parent="0"/>
                <mxCell id="18" style="edgeStyle=orthogonalEdgeStyle;html=1;exitX=0.5;exitY=0;exitDx=0;exitDy=0;entryX=0.5;entryY=1;entryDx=0;entryDy=0;endArrow=open;endFill=0;startArrow=open;startFill=0;endSize=10;startSize=10;strokeColor=#000000;" edge="1" parent="1" source="2" target="5">
                    <mxGeometry relative="1" as="geometry"/>
                </mxCell>
                <mxCell id="2" value="Hardware" style="rounded=0;whiteSpace=wrap;html=1;fillColor=#6a00ff;fontColor=#ffffff;strokeColor=#000000;" vertex="1" parent="1">
                    <mxGeometry x="40" y="280" width="360" height="60" as="geometry"/>
                </mxCell>
                <mxCell id="5" value="VMM/Hypervisor" style="rounded=0;whiteSpace=wrap;html=1;fillColor=#d80073;fontColor=#ffffff;strokeColor=#000000;" vertex="1" parent="1">
                    <mxGeometry x="40" y="210" width="360" height="40" as="geometry"/>
                </mxCell>
                <mxCell id="6" value="Guest OS 0&lt;br&gt;(Windows 11)" style="rounded=0;whiteSpace=wrap;html=1;fillColor=#a20025;fontColor=#ffffff;strokeColor=#000000;" vertex="1" parent="1">
                    <mxGeometry x="40" y="170" width="120" height="40" as="geometry"/>
                </mxCell>
                <mxCell id="7" value="Guest OS 1&lt;br&gt;(Solaris 11.4)" style="rounded=0;whiteSpace=wrap;html=1;fillColor=#a20025;fontColor=#ffffff;strokeColor=#000000;" vertex="1" parent="1">
                    <mxGeometry x="160" y="170" width="80" height="40" as="geometry"/>
                </mxCell>
                <mxCell id="8" value="Guest OS 2&lt;br&gt;(Slackware 14.2)" style="rounded=0;whiteSpace=wrap;html=1;fillColor=#a20025;fontColor=#ffffff;strokeColor=#000000;" vertex="1" parent="1">
                    <mxGeometry x="240" y="170" width="160" height="40" as="geometry"/>
                </mxCell>
                <mxCell id="9" value="Process" style="rounded=0;whiteSpace=wrap;html=1;rotation=-90;fillColor=#0050ef;fontColor=#ffffff;strokeColor=#000000;align=left;" vertex="1" parent="1">
                    <mxGeometry x="-10" y="80" width="140" height="40" as="geometry"/>
                </mxCell>
                <mxCell id="19" value="Process" style="rounded=0;whiteSpace=wrap;html=1;rotation=-90;fillColor=#0050ef;fontColor=#ffffff;strokeColor=#000000;align=left;" vertex="1" parent="1">
                    <mxGeometry x="35" y="85" width="130" height="40" as="geometry"/>
                </mxCell>
                <mxCell id="20" value="Process" style="rounded=0;whiteSpace=wrap;html=1;rotation=-90;fillColor=#0050ef;fontColor=#ffffff;strokeColor=#000000;align=left;" vertex="1" parent="1">
                    <mxGeometry x="112.5" y="122.5" width="55" height="40" as="geometry"/>
                </mxCell>
                <mxCell id="21" value="Process" style="rounded=0;whiteSpace=wrap;html=1;rotation=-90;fillColor=#0050ef;fontColor=#ffffff;strokeColor=#000000;align=left;" vertex="1" parent="1">
                    <mxGeometry x="110" y="80" width="140" height="40" as="geometry"/>
                </mxCell>
                <mxCell id="22" value="Process" style="rounded=0;whiteSpace=wrap;html=1;rotation=-90;fillColor=#0050ef;fontColor=#ffffff;strokeColor=#000000;align=left;" vertex="1" parent="1">
                    <mxGeometry x="140" y="70" width="160" height="40" as="geometry"/>
                </mxCell>
                <mxCell id="23" value="Process" style="rounded=0;whiteSpace=wrap;html=1;rotation=-90;fillColor=#0050ef;fontColor=#ffffff;strokeColor=#000000;align=left;" vertex="1" parent="1">
                    <mxGeometry x="200" y="90" width="120" height="40" as="geometry"/>
                </mxCell>
                <mxCell id="24" value="Process" style="rounded=0;whiteSpace=wrap;html=1;rotation=-90;fillColor=#0050ef;fontColor=#ffffff;strokeColor=#000000;align=left;" vertex="1" parent="1">
                    <mxGeometry x="230" y="80" width="140" height="40" as="geometry"/>
                </mxCell>
                <mxCell id="25" value="Process" style="rounded=0;whiteSpace=wrap;html=1;rotation=-90;fillColor=#0050ef;fontColor=#ffffff;strokeColor=#000000;align=left;" vertex="1" parent="1">
                    <mxGeometry x="285" y="95" width="110" height="40" as="geometry"/>
                </mxCell>
                <mxCell id="26" value="Process" style="rounded=0;whiteSpace=wrap;html=1;rotation=-90;fillColor=#0050ef;fontColor=#ffffff;strokeColor=#000000;align=left;" vertex="1" parent="1">
                    <mxGeometry x="340" y="110" width="80" height="40" as="geometry"/>
                </mxCell>
                <mxCell id="27" value="" style="shape=curlyBracket;whiteSpace=wrap;html=1;rounded=1;flipH=1;strokeColor=#000000;align=left;" vertex="1" parent="1">
                    <mxGeometry x="405" y="10" width="20" height="160" as="geometry"/>
                </mxCell>
                <mxCell id="29" value="Guest OSes running user processes with differing resource requirements" style="text;html=1;strokeColor=none;fillColor=none;align=left;verticalAlign=middle;whiteSpace=wrap;rounded=0;" vertex="1" parent="1">
                    <mxGeometry x="425" y="67.5" width="140" height="45" as="geometry"/>
                </mxCell>
                <mxCell id="31" style="edgeStyle=orthogonalEdgeStyle;html=1;exitX=0;exitY=0.5;exitDx=0;exitDy=0;entryX=1;entryY=0.5;entryDx=0;entryDy=0;startArrow=none;startFill=0;endArrow=open;endFill=0;startSize=10;endSize=10;strokeColor=#000000;" edge="1" parent="1" source="30" target="8">
                    <mxGeometry relative="1" as="geometry"/>
                </mxCell>
                <mxCell id="30" value="Guest OS kernels" style="text;html=1;strokeColor=none;fillColor=none;align=left;verticalAlign=middle;whiteSpace=wrap;rounded=0;" vertex="1" parent="1">
                    <mxGeometry x="430" y="180" width="100" height="20" as="geometry"/>
                </mxCell>
                <mxCell id="33" style="edgeStyle=orthogonalEdgeStyle;html=1;exitX=0;exitY=0.5;exitDx=0;exitDy=0;entryX=1;entryY=0.5;entryDx=0;entryDy=0;startArrow=none;startFill=0;endArrow=open;endFill=0;startSize=10;endSize=10;strokeColor=#000000;" edge="1" parent="1" source="32" target="5">
                    <mxGeometry relative="1" as="geometry"/>
                </mxCell>
                <mxCell id="32" value="VMM manages resource allocation to Gues OSes" style="text;html=1;strokeColor=none;fillColor=none;align=left;verticalAlign=middle;whiteSpace=wrap;rounded=0;" vertex="1" parent="1">
                    <mxGeometry x="430" y="220" width="140" height="20" as="geometry"/>
                </mxCell>
                <mxCell id="35" style="edgeStyle=orthogonalEdgeStyle;html=1;exitX=0;exitY=0.5;exitDx=0;exitDy=0;entryX=1;entryY=0.5;entryDx=0;entryDy=0;startArrow=none;startFill=0;endArrow=open;endFill=0;startSize=10;endSize=10;strokeColor=#000000;" edge="1" parent="1" source="34" target="2">
                    <mxGeometry relative="1" as="geometry"/>
                </mxCell>
                <mxCell id="34" value="System Hardware" style="text;html=1;strokeColor=none;fillColor=none;align=left;verticalAlign=middle;whiteSpace=wrap;rounded=0;" vertex="1" parent="1">
                    <mxGeometry x="430" y="300" width="140" height="20" as="geometry"/>
                </mxCell>
            </root>
        </mxGraphModel>
    </diagram>
</mxfile>